<?xml version="1.0" encoding="utf-8"?>
<svg version="1.1" id="svg62" width="800" height="340.79803" viewBox="0 0 800.00024 340.79804" xmlns="http://www.w3.org/2000/svg">
  <defs id="defs66">
    <clipPath clipPathUnits="userSpaceOnUse" id="clipPath78">
      <path d="M 0 611.667 L 1015.667 611.667 L 1015.667 0 L 0 0 L 0 611.667 Z" id="path76"/>
    </clipPath>
    <clipPath clipPathUnits="userSpaceOnUse" id="clipPath114">
      <path d="M 0,611.667 H 1015.667 V 0 H 0 Z" id="path112"/>
    </clipPath>
    <clipPath clipPathUnits="userSpaceOnUse" id="clipPath134">
      <path d="M 0,611.667 H 1015.667 V 0 H 0 Z" id="path132"/>
    </clipPath>
  </defs>
  <path d="M 469.013 178.295 C 469.013 178.295 469.233 178.286 469.665 178.272 C 470.063 178.255 470.899 178.242 471.218 178.166 C 471.448 178.136 471.689 178.129 472.054 178.046 C 472.397 177.982 472.781 177.927 473.156 177.807 C 473.943 177.625 474.767 177.302 475.626 176.847 C 477.32 175.93 479.18 174.331 480.748 171.209 C 481.518 169.658 482.2 167.771 482.678 165.604 C 482.92 164.524 483.114 163.377 483.248 162.195 C 483.315 161.605 483.367 161.004 483.396 160.418 C 483.43 159.784 483.431 159.409 483.427 158.538 C 483.4 146.23 483.367 131.284 483.329 114.141 C 483.31 105.568 483.289 96.447 483.268 86.832 C 483.266 85.63 483.262 84.42 483.26 83.202 L 483.258 82.288 L 483.257 81.83 L 483.27 81.226 L 483.281 80.997 C 483.311 80.385 483.341 79.771 483.37 79.156 C 483.406 78.525 483.415 77.958 483.474 77.269 C 483.583 76.475 483.692 75.678 483.801 74.878 C 483.92 74.082 484.037 73.273 484.176 72.484 C 484.359 71.756 484.543 71.026 484.727 70.293 C 486.223 64.443 488.962 58.759 492.829 53.779 C 496.694 48.806 501.664 44.483 507.508 41.453 C 513.324 38.398 519.954 36.571 526.749 36.29 L 528.025 36.228 L 528.343 36.213 C 528.616 36.215 528.186 36.19 529.034 36.214 L 529.569 36.24 C 530.282 36.274 530.996 36.309 531.712 36.343 L 532.787 36.395 C 533.205 36.435 533.7 36.509 534.153 36.568 C 535.079 36.704 536.006 36.84 536.936 36.976 C 537.902 37.095 538.68 37.351 539.541 37.553 C 540.385 37.771 541.23 37.989 542.077 38.208 C 542.9 38.503 543.725 38.798 544.552 39.094 C 545.37 39.411 546.219 39.66 547.002 40.068 C 553.436 42.939 559.316 47.319 563.921 52.921 C 568.47 58.557 571.797 65.359 573.292 72.675 C 573.435 73.595 573.579 74.517 573.723 75.44 L 573.928 76.828 C 573.99 77.291 573.992 77.759 574.025 78.226 L 574.166 81.032 L 574.194 81.726 L 574.195 82.313 L 574.195 83.489 C 574.197 86.627 574.199 89.783 574.201 92.957 C 574.208 105.65 574.216 118.617 574.223 131.804 C 574.227 138.398 574.232 145.046 574.235 151.743 C 574.239 153.353 574.242 154.965 574.246 156.58 L 574.278 157.84 C 574.289 158.262 574.296 158.709 574.331 158.985 L 574.41 159.942 C 574.429 160.253 574.456 160.58 574.51 160.942 C 574.834 163.751 575.457 166.529 576.372 169.218 C 579.961 180 588.599 189.216 599.41 193.447 C 602.101 194.517 604.912 195.296 607.784 195.761 C 608.5 195.886 609.228 195.949 609.949 196.052 L 612.13 196.225 L 614.155 196.273 L 615.46 196.24 L 616.114 196.223 L 616.44 196.214 L 616.689 196.191 C 617.363 196.119 617.968 196.112 618.704 196.01 C 619.426 195.904 620.157 195.853 620.873 195.702 C 621.591 195.57 622.315 195.459 623.021 195.275 L 624.09 195.03 L 625.145 194.731 C 627.954 193.928 630.682 192.821 633.256 191.418 C 638.387 188.585 642.946 184.639 646.403 179.87 C 649.861 175.11 652.296 169.603 653.353 163.816 C 653.48 163.092 653.625 162.371 653.699 161.637 C 653.8 160.909 653.885 160.178 653.924 159.441 L 654.005 158.339 L 654.03 157.232 C 654.036 156.843 654.057 156.54 654.054 156.08 L 654.053 154.761 C 654.05 151.245 654.049 147.73 654.046 144.217 C 654.043 137.191 654.04 130.171 654.037 123.165 C 654.043 116.16 654.048 109.167 654.054 102.196 C 654.057 98.711 654.059 95.229 654.063 91.755 C 654.064 90.018 654.065 88.282 654.067 86.548 L 654.069 83.948 C 654.09 83.055 654.084 83.514 654.094 83.231 L 654.11 82.906 L 654.143 82.258 L 654.211 80.956 C 654.366 79.705 654.54 78.414 654.77 77.202 C 655.052 76.102 655.304 74.991 655.65 73.911 C 656.047 72.849 656.389 71.761 656.869 70.736 L 657.605 69.204 C 657.846 68.691 658.104 68.187 658.409 67.711 C 660.668 63.791 663.735 60.37 667.354 57.705 C 670.969 55.036 675.145 53.127 679.521 52.149 C 680.607 51.874 681.724 51.766 682.827 51.587 C 683.933 51.436 685.049 51.433 686.159 51.369 L 686.576 51.353 C 687.5 51.366 687.015 51.366 687.304 51.373 L 687.941 51.406 L 689.214 51.471 L 689.532 51.487 C 689.64 51.493 689.828 51.522 689.972 51.538 L 690.899 51.66 L 692.747 51.939 C 701.642 53.587 709.412 59.041 714.096 66.468 C 716.447 70.169 718.032 74.351 718.724 78.651 L 718.964 80.266 C 719.048 80.803 719.044 81.346 719.084 81.887 L 719.159 83.509 L 719.174 83.912 L 719.174 84.222 L 719.173 84.843 C 719.173 86.498 719.171 88.15 719.169 89.799 C 719.148 116.173 719.127 141.669 719.107 165.845 C 719.097 177.934 719.087 189.693 719.078 201.067 C 719.077 201.777 719.076 202.487 719.076 203.195 L 719.075 203.726 L 719.075 203.99 C 719.072 203.908 719.082 204.551 719.068 203.872 L 719.12 204.929 C 719.136 205.842 719.249 205.799 719.265 206.103 C 719.256 206.195 719.338 206.426 719.383 206.608 L 719.522 207.184 C 720.011 208.682 720.843 210.059 721.926 211.191 C 723.022 212.315 724.38 213.134 725.809 213.64 C 726.154 213.808 726.544 213.829 726.901 213.955 C 727.271 214.037 727.652 214.065 728.023 214.143 L 728.595 214.164 L 728.88 214.183 L 729.022 214.194 C 728.31 214.217 728.967 214.194 728.873 214.195 L 729.865 214.146 L 730.36 214.121 C 730.464 214.12 730.481 214.109 730.508 214.1 L 730.592 214.075 C 730.838 213.993 730.98 214.04 731.396 213.903 L 731.936 213.77 C 732.117 213.727 732.282 213.64 732.458 213.582 C 732.629 213.516 732.809 213.468 732.978 213.395 L 733.473 213.15 C 733.82 213.019 734.114 212.788 734.435 212.611 C 735.685 211.835 736.73 210.752 737.492 209.536 C 738.259 208.319 738.749 206.97 738.941 205.581 C 739.026 205.24 739 204.88 739.031 204.53 L 739.051 204.267 C 739.061 204.205 739.054 203.986 739.056 203.854 L 739.057 202.939 C 739.058 201.723 739.059 200.513 739.06 199.311 C 739.068 189.695 739.076 180.573 739.083 172.002 C 739.09 163.43 739.097 155.408 739.102 147.989 C 739.106 144.281 739.108 140.723 739.112 137.323 C 739.112 136.473 739.112 135.633 739.113 134.803 L 739.113 134.648 L 739.127 134.114 L 739.143 133.804 L 739.175 133.187 L 739.191 132.881 L 739.198 132.728 L 739.225 132.479 L 739.362 131.405 L 739.527 130.342 C 739.586 129.981 739.667 129.731 739.739 129.423 C 739.898 128.836 740.021 128.243 740.228 127.68 C 740.428 127.115 740.635 126.555 740.848 126.003 C 741.096 125.467 741.349 124.935 741.61 124.414 C 742.708 122.356 744.082 120.527 745.66 119 C 747.244 117.476 749.034 116.286 750.866 115.358 C 752.73 114.481 754.641 113.886 756.526 113.598 C 757.465 113.458 758.4 113.382 759.305 113.371 C 759.758 113.382 760.206 113.393 760.65 113.403 L 760.981 113.415 L 761.477 113.43 L 761.59 113.449 L 762.036 113.526 C 762.333 113.58 762.627 113.633 762.918 113.686 C 763.359 113.769 763.864 113.874 764.321 113.978 C 765.308 114.178 766.021 114.463 766.767 114.73 C 767.513 114.983 768.194 115.36 768.871 115.672 C 769.535 116.014 770.148 116.418 770.746 116.792 C 773.088 118.398 774.781 120.328 775.928 122.211 C 777.066 124.109 777.699 125.931 778.047 127.502 C 778.358 129.094 778.411 130.426 778.345 131.478 C 778.306 132.006 778.254 132.462 778.207 132.848 C 778.134 133.236 778.061 133.557 777.999 133.81 C 777.883 134.318 777.81 134.567 777.81 134.567 C 777.467 135.741 776.237 136.414 775.064 136.071 C 774.431 135.886 773.943 135.444 773.682 134.891 L 773.531 134.567 C 773.531 134.567 773.445 134.383 773.275 134.021 C 773.193 133.843 773.092 133.624 772.986 133.369 C 772.851 133.125 772.694 132.842 772.515 132.52 C 772.17 131.893 771.657 131.177 771.05 130.428 C 770.379 129.706 769.617 128.944 768.65 128.296 C 767.695 127.644 766.565 127.105 765.346 126.766 C 765.04 126.702 764.727 126.635 764.408 126.567 C 764.08 126.546 763.777 126.45 763.442 126.462 C 763.117 126.459 762.746 126.419 762.587 126.493 C 762.475 126.513 762.405 126.522 762.267 126.529 C 761.972 126.552 761.674 126.575 761.374 126.599 C 758.882 127.076 756.255 128.654 754.884 131.325 C 754.813 131.497 754.728 131.662 754.639 131.829 C 754.584 132.009 754.522 132.186 754.45 132.362 C 754.371 132.537 754.361 132.733 754.3 132.915 C 754.283 132.996 754.231 133.127 754.235 133.167 C 754.234 133.212 754.229 133.257 754.218 133.301 C 754.207 133.345 754.192 133.389 754.172 133.433 C 754.167 133.453 754.159 133.434 754.157 133.486 L 754.149 133.639 L 754.134 133.946 L 754.103 134.562 L 754.088 134.871 C 754.083 135.005 754.102 134.257 754.094 134.648 L 754.094 134.803 C 754.095 135.633 754.096 136.473 754.096 137.323 C 754.099 140.723 754.102 144.281 754.105 147.989 C 754.111 155.408 754.117 163.43 754.125 172.002 C 754.132 180.573 754.139 189.695 754.147 199.311 C 754.148 200.513 754.149 201.723 754.151 202.939 L 754.152 203.854 C 754.149 204.027 754.157 204.114 754.146 204.357 L 754.12 205.011 C 754.073 205.882 754.057 206.758 753.901 207.629 C 753.428 211.122 752.187 214.569 750.26 217.619 C 748.34 220.673 745.74 223.345 742.622 225.328 C 741.833 225.808 741.055 226.315 740.206 226.697 L 738.945 227.298 C 738.517 227.482 738.075 227.635 737.636 227.8 C 737.196 227.955 736.76 228.132 736.309 228.257 L 734.945 228.615 C 734.104 228.864 732.927 229.017 731.873 229.158 L 731.469 229.207 C 731.333 229.224 731.186 229.241 731.126 229.24 L 730.631 229.266 L 729.639 229.317 C 729.379 229.323 729.871 229.319 728.993 229.336 L 728.638 229.323 L 727.929 229.291 L 726.507 229.211 C 725.564 229.076 724.612 228.96 723.676 228.755 C 722.749 228.506 721.797 228.329 720.897 227.973 C 717.25 226.713 713.852 224.616 711.106 221.816 C 708.37 219.009 706.253 215.534 705.034 211.708 L 704.647 210.253 C 704.526 209.755 704.393 209.315 704.309 208.707 C 704.131 207.622 703.946 206.198 703.955 205.697 L 703.901 204.64 C 703.876 203.784 703.894 204.251 703.888 203.99 L 703.888 203.726 L 703.887 203.195 C 703.887 202.487 703.886 201.777 703.886 201.067 C 703.876 189.693 703.866 177.934 703.856 165.845 C 703.836 141.669 703.816 116.173 703.794 89.799 C 703.792 88.15 703.791 86.498 703.79 84.843 L 703.789 84.222 L 703.789 83.912 L 703.774 83.694 L 703.724 82.833 C 703.7 82.547 703.725 82.254 703.669 81.973 L 703.532 81.125 C 703.165 78.868 702.335 76.688 701.095 74.74 C 699.859 72.792 698.213 71.082 696.294 69.766 C 694.401 68.443 692.133 67.54 689.942 67.124 C 685.224 66.216 680.344 67.323 676.54 70.159 C 674.641 71.564 673.026 73.372 671.845 75.425 C 671.675 75.67 671.544 75.936 671.426 76.208 L 671.04 77.007 C 670.78 77.539 670.635 78.117 670.405 78.663 C 670.227 79.227 670.117 79.811 669.947 80.379 C 669.872 80.867 669.816 81.294 669.701 81.751 L 669.636 83.043 L 669.603 83.691 L 669.588 84.016 C 669.588 83.949 669.564 84.624 669.583 83.948 L 669.586 86.548 C 669.587 88.282 669.588 90.018 669.59 91.755 C 669.593 95.229 669.596 98.711 669.598 102.196 C 669.604 109.167 669.61 116.16 669.616 123.165 C 669.613 130.171 669.609 137.191 669.606 144.217 C 669.604 147.73 669.602 151.245 669.6 154.761 L 669.599 156.08 C 669.603 156.497 669.58 157.073 669.57 157.563 L 669.529 159.093 L 669.42 160.62 C 669.358 161.641 669.242 162.656 669.103 163.669 C 668.991 164.686 668.799 165.692 668.618 166.699 C 667.127 174.754 663.735 182.432 658.924 189.024 C 654.116 195.628 647.811 201.095 640.671 205.013 C 637.092 206.959 633.295 208.5 629.384 209.613 L 627.916 210.021 L 626.43 210.365 C 625.444 210.611 624.442 210.777 623.442 210.954 C 622.446 211.152 621.435 211.241 620.431 211.378 C 619.438 211.51 618.295 211.561 617.235 211.643 L 616.832 211.67 L 616.505 211.678 L 615.852 211.695 L 614.546 211.726 C 614.486 211.73 613.954 211.735 613.997 211.729 L 613.619 211.72 L 612.862 211.701 L 611.349 211.66 C 610.342 211.582 609.334 211.518 608.329 211.419 C 607.328 211.285 606.322 211.184 605.327 211.014 C 601.34 210.365 597.428 209.278 593.689 207.785 C 578.67 201.866 566.794 189.161 561.8 174.167 C 560.534 170.431 559.674 166.57 559.232 162.681 C 559.165 162.208 559.118 161.696 559.084 161.167 L 558.97 159.605 C 558.925 159.043 558.921 158.648 558.911 158.229 L 558.88 156.969 C 558.876 155.225 558.873 153.482 558.87 151.743 C 558.874 145.046 558.877 138.398 558.881 131.804 C 558.889 118.617 558.896 105.65 558.904 92.957 C 558.906 89.783 558.908 86.627 558.91 83.489 L 558.911 82.313 L 558.911 81.726 L 558.885 81.248 L 558.788 79.374 C 558.767 79.063 558.779 78.747 558.734 78.44 L 558.587 77.519 L 558.315 75.68 C 557.311 70.834 555.134 66.325 552.129 62.535 C 549.066 58.783 545.143 55.849 540.877 53.908 C 540.364 53.616 539.788 53.475 539.246 53.258 L 537.606 52.648 L 535.917 52.217 C 535.367 52.086 534.764 51.871 534.289 51.838 C 533.788 51.766 533.29 51.684 532.793 51.593 C 532.535 51.551 532.321 51.493 532.025 51.458 L 530.95 51.4 C 530.234 51.363 529.52 51.325 528.806 51.288 L 528.273 51.26 C 528.943 51.273 528.335 51.27 528.429 51.277 L 528.214 51.29 L 527.358 51.335 C 522.79 51.506 518.385 52.698 514.475 54.718 C 510.547 56.713 507.196 59.625 504.583 62.956 C 501.967 66.296 500.116 70.097 499.095 74.014 C 498.965 74.504 498.835 74.993 498.705 75.479 L 498.504 76.793 L 498.268 78.09 C 498.215 78.635 498.198 79.306 498.16 79.905 C 498.128 80.52 498.095 81.134 498.063 81.745 L 498.051 81.975 C 498.044 82.133 498.065 81.419 498.056 81.83 L 498.055 82.288 L 498.053 83.202 C 498.05 84.42 498.048 85.63 498.045 86.832 C 498.024 96.447 498.003 105.568 497.984 114.141 C 497.946 131.284 497.913 146.23 497.886 158.538 C 497.888 159.206 497.879 160.347 497.823 161.209 C 497.772 162.118 497.692 162.989 497.591 163.844 C 497.39 165.553 497.105 167.195 496.741 168.788 C 496.02 171.969 494.967 174.957 493.595 177.68 C 492.209 180.399 490.507 182.85 488.538 184.848 C 486.589 186.856 484.437 188.398 482.386 189.483 C 480.333 190.568 478.401 191.26 476.744 191.662 C 475.912 191.896 475.152 192.025 474.455 192.147 C 473.786 192.282 473.073 192.35 472.456 192.41 C 471.085 192.555 470.626 192.528 470.159 192.551 C 469.727 192.566 469.507 192.572 469.507 192.572 L 469.498 192.573 C 465.555 192.698 462.257 189.603 462.132 185.66 C 462.007 181.717 465.071 178.42 469.013 178.295" style="fill:#71c16c;fill-opacity:1;fill-rule:nonzero;stroke:none" id="path82" clip-path="url(#clipPath78)"/>
  <path d="M 47.259 80.036 C 47.259 80.036 47.401 79.895 47.678 79.618 C 47.824 79.476 47.977 79.312 48.212 79.094 C 48.452 78.874 48.731 78.618 49.05 78.327 C 50.338 77.246 52.218 75.59 55.56 74.035 C 56.406 73.65 57.364 73.315 58.454 73.034 C 59.543 72.754 60.788 72.564 62.18 72.593 C 63.565 72.616 65.102 72.861 66.624 73.415 C 68.149 73.964 69.605 74.842 70.873 75.89 C 73.404 78.012 75.224 80.625 76.739 83.31 C 78.24 86.015 79.396 88.911 80.061 91.962 C 80.716 95.018 80.977 98.192 81.18 101.455 C 81.365 104.723 81.413 108.095 81.344 111.578 C 81.349 118.165 81.355 125.289 81.362 132.901 C 81.384 148.249 81.41 165.566 81.438 184.458 C 81.439 185.638 81.441 186.824 81.443 188.018 C 81.444 188.614 81.445 189.212 81.446 189.812 L 81.447 190.518 L 81.472 191.42 C 81.524 193.14 81.813 194.928 82.322 196.672 C 83.318 200.154 85.27 203.435 87.952 206.088 C 90.636 208.739 94.063 210.701 97.809 211.669 C 98.752 211.883 99.702 212.098 100.676 212.19 C 101.16 212.266 101.653 212.268 102.142 212.317 L 102.882 212.332 L 103.253 212.343 C 102.944 212.346 103.31 212.34 103.306 212.339 L 103.556 212.332 L 104.558 212.305 L 105.172 212.248 L 105.477 212.226 L 105.843 212.177 L 106.58 212.084 C 107.554 211.91 108.529 211.719 109.478 211.421 C 113.285 210.28 116.831 208.029 119.534 204.943 C 122.245 201.867 124.078 197.991 124.686 193.86 C 124.828 192.825 124.912 191.778 124.919 190.72 C 124.918 189.305 124.917 187.886 124.917 186.465 C 124.912 183.594 124.908 180.708 124.904 177.809 C 124.896 172.01 124.888 166.156 124.878 160.252 C 124.843 136.638 124.808 112.237 124.772 87.443 C 124.769 85.894 124.767 84.343 124.764 82.79 L 124.761 80.46 L 124.76 79.877 L 124.774 79.093 L 124.803 77.927 L 124.816 77.343 L 124.859 76.634 L 124.965 75.165 C 125.024 74.152 125.166 73.306 125.273 72.381 C 125.52 70.566 125.87 68.762 126.302 66.978 C 128.032 59.835 131.314 53.056 135.823 47.229 C 140.323 41.392 146.04 36.486 152.528 32.928 C 159.014 29.367 166.283 27.202 173.654 26.596 C 174.576 26.525 175.497 26.445 176.42 26.438 L 177.805 26.404 C 178.009 26.403 177.836 26.396 178.351 26.399 L 178.646 26.407 L 179.236 26.422 L 180.417 26.452 L 180.72 26.462 L 181.091 26.487 L 181.834 26.538 L 183.319 26.651 C 183.817 26.69 184.248 26.759 184.716 26.814 C 188.387 27.266 192.016 28.103 195.516 29.308 C 202.517 31.716 208.997 35.587 214.388 40.608 C 219.79 45.614 224.141 51.73 227.076 58.461 C 230.023 65.186 231.529 72.525 231.515 79.788 C 231.51 104.582 231.505 128.983 231.5 152.597 C 231.499 158.444 231.499 164.243 231.498 169.987 L 231.51 170.53 L 231.515 170.801 C 231.51 170.734 231.534 171.338 231.505 170.717 L 231.541 171.26 C 231.553 171.44 231.565 171.656 231.576 171.665 C 231.598 171.836 231.668 172.327 231.747 172.647 C 231.913 173.344 232.143 173.934 232.443 174.432 C 233.028 175.423 233.876 176.175 235.101 176.718 C 236.311 177.252 237.864 177.479 239.342 177.305 C 240.825 177.139 242.189 176.588 243.157 175.848 C 244.135 175.099 244.777 174.223 245.176 173.036 C 245.384 172.449 245.504 171.762 245.561 171.005 C 245.583 170.821 245.574 170.618 245.585 170.422 L 245.59 169.484 L 245.592 167.452 C 245.596 162.04 245.599 156.702 245.603 151.444 C 245.606 148.816 245.607 146.207 245.609 143.619 L 245.611 141.681 L 245.621 140.579 L 245.639 139.615 L 245.648 139.135 L 245.676 138.548 L 245.74 137.371 C 245.773 136.567 245.864 135.871 245.928 135.119 C 246.529 129.223 248.16 123.187 251.316 117.756 C 254.414 112.311 259.19 107.742 264.468 104.852 C 269.762 101.933 275.366 100.539 280.631 99.99 C 281.954 99.845 283.258 99.774 284.549 99.722 C 285.851 99.696 287.049 99.659 288.506 99.75 C 289.323 99.788 289.989 99.863 290.712 99.943 C 291.428 100.033 292.144 100.141 292.862 100.282 C 294.297 100.561 295.731 100.946 297.137 101.45 C 299.948 102.448 302.634 103.951 304.92 105.809 C 307.216 107.661 309.109 109.827 310.616 112.055 C 313.633 116.546 315.229 121.182 316.262 125.537 C 317.274 129.911 317.698 134.088 317.827 138.077 C 317.838 138.573 317.849 139.067 317.86 139.559 C 317.861 140.108 317.862 140.654 317.863 141.198 C 317.837 142.078 317.813 142.949 317.788 143.813 C 317.739 145.539 317.689 147.232 317.642 148.892 C 317.63 149.307 317.618 149.72 317.606 150.131 L 317.597 150.438 C 317.602 149.927 317.599 150.385 317.6 150.31 L 317.601 150.464 L 317.609 151.006 C 317.62 151.311 317.632 151.615 317.643 151.917 C 317.666 152.237 317.689 152.556 317.712 152.872 C 317.82 154.137 318.006 155.361 318.257 156.468 C 318.504 157.573 318.818 158.577 319.158 159.349 C 319.486 160.135 319.857 160.675 320.034 160.864 C 320.121 160.957 320.154 160.988 320.111 160.959 C 320.07 160.928 319.961 160.872 319.848 160.851 C 319.798 160.827 319.74 160.831 319.708 160.819 C 319.685 160.822 319.668 160.824 319.663 160.816 C 319.659 160.814 319.654 160.815 319.65 160.816 L 319.643 160.819 C 319.851 160.827 319.167 160.809 320.108 160.839 C 320.739 160.878 321.361 160.916 321.973 160.954 C 324.422 161.105 326.718 161.248 328.853 161.381 C 333.125 161.645 336.759 161.871 339.704 162.054 C 345.596 162.419 348.739 162.613 348.739 162.613 C 352.865 162.869 356.002 166.421 355.746 170.547 C 355.492 174.656 351.965 177.784 347.861 177.557 C 347.861 177.557 344.717 177.383 338.824 177.055 C 335.876 176.892 332.241 176.69 327.968 176.453 C 325.831 176.334 323.535 176.207 321.085 176.071 C 320.472 176.037 319.85 176.002 319.219 175.968 C 320.08 175.992 319.318 175.972 319.447 175.975 L 319.202 175.967 L 318.712 175.945 C 318.388 175.933 318.054 175.899 317.714 175.849 C 317.041 175.77 316.356 175.617 315.674 175.433 C 314.311 175.04 312.991 174.432 311.821 173.676 C 310.651 172.919 309.667 172.033 308.82 171.117 C 307.136 169.27 306.049 167.338 305.22 165.469 C 304.388 163.587 303.825 161.735 303.391 159.876 C 302.96 158.016 302.671 156.153 302.493 154.248 C 302.456 153.771 302.418 153.292 302.38 152.809 C 302.354 152.33 302.328 151.847 302.315 151.296 L 302.302 150.615 L 302.3 150.027 L 302.307 149.719 C 302.318 149.309 302.328 148.896 302.338 148.481 C 302.38 146.821 302.422 145.127 302.466 143.401 C 302.487 142.537 302.509 141.665 302.531 140.786 C 302.527 140.45 302.523 140.112 302.519 139.773 C 302.509 139.377 302.499 138.978 302.489 138.579 C 302.377 135.406 302.016 132.158 301.281 129.056 C 300.55 125.963 299.419 123.014 297.855 120.732 C 296.275 118.437 294.406 116.898 291.931 116.025 C 291.309 115.807 290.645 115.629 289.94 115.493 C 289.588 115.425 289.222 115.373 288.85 115.325 C 288.484 115.29 288.056 115.243 287.77 115.235 C 287.023 115.176 285.999 115.206 285.069 115.227 C 284.129 115.271 283.188 115.323 282.264 115.43 C 278.56 115.826 275.029 116.799 272.04 118.465 C 269.061 120.145 266.61 122.486 264.841 125.592 C 263.057 128.678 261.94 132.504 261.53 136.725 C 261.493 137.241 261.416 137.812 261.405 138.286 L 261.365 139.025 L 261.343 139.399 L 261.337 139.88 L 261.322 140.844 L 261.315 141.326 C 261.317 141.133 261.317 141.672 261.317 141.672 L 261.323 143.61 C 261.33 146.198 261.338 148.807 261.346 151.435 C 261.361 156.693 261.377 162.03 261.392 167.442 L 261.398 169.475 L 261.396 170.574 C 261.384 171.058 261.384 171.537 261.343 172.031 C 261.214 173.988 260.874 176.02 260.198 178.031 C 258.908 182.063 256.206 185.893 252.744 188.484 C 249.284 191.108 245.235 192.599 241.14 193.069 C 237.04 193.531 232.797 193.007 228.789 191.279 C 226.793 190.412 224.861 189.239 223.142 187.742 C 221.418 186.259 219.913 184.453 218.759 182.48 C 217.59 180.51 216.785 178.378 216.289 176.269 C 216.041 175.184 215.878 174.247 215.753 172.979 C 215.715 172.63 215.71 172.484 215.698 172.303 L 215.662 171.762 L 215.623 170.32 C 215.62 164.466 215.616 158.557 215.613 152.597 C 215.608 128.983 215.602 104.582 215.596 79.788 C 215.601 74.653 214.544 69.54 212.478 64.831 C 210.42 60.121 207.362 55.823 203.564 52.303 C 199.774 48.77 195.222 46.065 190.327 44.384 C 187.879 43.543 185.343 42.959 182.767 42.643 C 182.454 42.608 182.107 42.547 181.82 42.53 L 180.951 42.463 L 180.516 42.426 L 180.299 42.406 L 180.013 42.397 L 178.833 42.367 L 178.242 42.352 L 177.947 42.345 C 178.266 42.352 177.895 42.352 177.904 42.355 L 176.927 42.381 C 176.275 42.38 175.628 42.445 174.98 42.493 C 169.803 42.923 164.739 44.432 160.194 46.929 C 155.651 49.425 151.632 52.877 148.474 56.975 C 145.305 61.067 143.025 65.809 141.796 70.797 C 141.492 72.044 141.241 73.305 141.065 74.576 C 140.996 75.198 140.873 75.89 140.851 76.433 L 140.779 77.292 C 140.768 77.447 140.749 77.554 140.743 77.747 L 140.728 78.33 L 140.697 79.496 L 140.688 79.787 C 140.684 80.065 140.685 79.736 140.686 79.877 L 140.685 80.46 L 140.682 82.79 C 140.679 84.343 140.677 85.894 140.674 87.443 C 140.639 112.237 140.602 136.638 140.568 160.252 C 140.559 166.156 140.55 172.01 140.542 177.809 C 140.538 180.708 140.534 183.594 140.53 186.465 C 140.525 187.914 140.522 189.359 140.519 190.8 C 140.503 192.6 140.358 194.396 140.1 196.174 C 139.034 203.295 135.838 209.982 131.189 215.219 C 126.554 220.476 120.475 224.318 113.909 226.263 C 112.271 226.762 110.598 227.106 108.924 227.384 L 107.663 227.545 L 107.032 227.622 L 106.335 227.676 L 104.949 227.77 L 103.948 227.793 L 103.252 227.808 L 102.624 227.793 L 101.369 227.758 C 100.534 227.689 99.698 227.656 98.87 227.538 C 97.208 227.36 95.572 227.014 93.958 226.624 C 87.519 224.95 81.675 221.556 77.128 217.038 C 72.577 212.522 69.271 206.907 67.573 200.937 C 66.717 197.962 66.229 194.907 66.145 191.808 L 66.123 190.906 L 66.12 189.812 C 66.121 189.212 66.121 188.614 66.122 188.018 C 66.124 186.824 66.126 185.638 66.127 184.458 C 66.156 165.566 66.18 148.249 66.203 132.901 C 66.221 125.164 66.239 117.923 66.254 111.228 C 66.343 108.071 66.321 105.069 66.183 102.256 C 66.064 99.441 65.742 96.829 65.469 94.453 C 65.21 92.075 65.094 89.886 64.798 88.02 C 64.521 86.152 63.968 84.696 63.376 83.866 C 62.774 83.063 62.303 82.67 61.449 82.424 C 60.612 82.197 59.461 82.226 58.362 82.409 C 57.246 82.585 56.183 82.922 55.254 83.244 C 54.316 83.555 53.521 83.911 52.873 84.18 C 52.558 84.315 52.281 84.433 52.044 84.535 C 51.801 84.641 51.566 84.764 51.394 84.844 C 51.041 85.016 50.862 85.103 50.862 85.103 C 49.296 85.864 47.41 85.211 46.65 83.646 C 46.047 82.405 46.336 80.96 47.259 80.036" style="fill:#ffde17;fill-opacity:1;fill-rule:nonzero;stroke:none" id="path86" clip-path="url(#clipPath78)"/>
  <path d="M 333.797 225.634 L 333.923 225.64 L 334.019 225.642 C 334.052 225.643 334.016 225.643 334.016 225.643 L 333.905 225.645 L 333.62 225.648 L 333.013 225.655 L 331.774 225.669 L 329.28 225.685 C 327.614 225.691 325.943 225.685 324.262 225.663 C 322.58 225.64 320.89 225.601 319.173 225.534 C 317.454 225.465 315.72 225.372 313.878 225.2 L 314.466 225.238 L 313.044 225.214 C 312.426 225.184 311.728 225.135 311.074 225.086 C 309.848 224.964 308.673 224.797 307.482 224.569 C 306.299 224.333 305.126 224.043 303.969 223.698 C 302.815 223.345 301.678 222.938 300.562 222.481 C 299.449 222.015 298.36 221.498 297.296 220.933 C 296.767 220.646 296.247 220.341 295.725 220.041 L 294.201 219.074 L 292.727 218.033 L 291.305 216.923 L 289.941 215.744 L 288.636 214.501 C 287.79 213.646 286.98 212.757 286.212 211.831 C 285.452 210.899 284.73 209.935 284.056 208.938 C 283.387 207.937 282.762 206.905 282.19 205.844 C 281.622 204.78 281.102 203.69 280.635 202.577 C 279.704 200.349 278.991 198.025 278.512 195.654 C 278.274 194.468 278.096 193.272 277.967 192.07 L 277.825 190.265 L 277.771 188.456 L 277.349 121.988 L 277.337 119.193 L 277.335 118.494 L 277.334 118.32 C 277.335 118.386 277.332 118.049 277.337 118.445 L 277.333 118.358 L 277.323 118.009 L 277.282 116.612 L 277.238 115.231 L 277.139 114.123 C 277.08 113.388 277.031 112.655 276.904 111.834 C 276.509 108.641 275.829 105.489 274.869 102.422 C 272.925 96.297 269.863 90.53 265.887 85.478 C 261.916 80.424 257.036 76.09 251.562 72.767 C 246.09 69.44 240.026 67.142 233.754 66.019 C 232.971 65.87 232.187 65.733 231.392 65.65 C 230.602 65.555 229.814 65.427 229.016 65.39 C 228.22 65.346 227.428 65.238 226.629 65.238 L 224.418 65.19 L 221.625 65.267 L 219.429 65.449 C 217.899 65.62 216.28 65.831 214.731 66.144 C 208.48 67.358 202.461 69.742 197.047 73.133 C 191.625 76.513 186.836 80.925 182.967 86.017 C 179.092 91.11 176.147 96.892 174.319 103.002 C 173.401 106.056 172.749 109.191 172.413 112.366 C 172.252 113.954 172.119 115.546 172.106 117.146 L 172.074 118.362 L 172.073 119.759 L 172.072 122.554 L 171.953 264.564 L 171.944 266.436 L 171.921 267.261 L 171.909 267.673 L 171.904 267.88 L 171.885 268.178 L 171.799 269.371 C 171.771 269.778 171.733 270.164 171.685 270.503 C 171.593 271.213 171.512 271.924 171.374 272.626 C 170.881 275.446 170.067 278.211 168.958 280.847 C 166.709 286.105 163.307 290.852 159.003 294.599 C 154.724 298.369 149.549 301.148 143.998 302.637 C 141.227 303.391 138.36 303.788 135.501 303.873 L 134.428 303.896 C 134.762 303.906 133.82 303.886 133.882 303.886 L 133.779 303.881 L 133.573 303.87 L 133.146 303.847 C 132.439 303.804 131.808 303.758 131.161 303.697 C 129.868 303.579 128.563 303.412 127.249 303.19 C 122.024 302.31 116.521 300.513 111.587 297.135 C 109.131 295.459 106.861 293.4 104.949 291.064 C 103.03 288.732 101.472 286.139 100.297 283.452 C 99.12 280.76 98.312 277.985 97.824 275.173 C 97.581 273.762 97.416 272.349 97.341 270.862 C 97.323 270.488 97.31 270.109 97.305 269.709 L 97.306 269.08 L 97.314 268.713 L 97.326 268.443 C 97.416 267.239 97.255 270.023 97.316 268.862 L 97.308 267.198 L 97.247 253.986 L 97.158 227.544 L 97.158 227.336 L 97.158 227.232 C 97.155 227.009 97.162 227.42 97.16 227.34 L 97.15 226.927 L 97.128 226.102 C 97.124 225.471 97.079 225.187 97.054 224.816 L 97.016 224.269 L 96.936 223.637 C 96.886 223.215 96.839 222.792 96.755 222.375 C 96.477 220.7 96.048 219.051 95.475 217.45 C 94.321 214.251 92.575 211.257 90.361 208.655 C 85.943 203.428 79.618 199.892 72.885 199.027 C 72.466 198.963 72.044 198.91 71.619 198.885 C 71.196 198.852 70.773 198.802 70.346 198.802 L 69.708 198.781 L 69.387 198.769 C 69.319 198.768 69.72 198.764 69.5 198.767 L 69.397 198.769 L 69.191 198.773 L 68.365 198.79 L 67.953 198.799 C 67.808 198.801 67.673 198.805 67.601 198.815 C 67.239 198.849 66.877 198.875 66.515 198.896 L 65.249 199.052 C 64.41 199.184 63.572 199.332 62.746 199.536 C 59.44 200.331 56.273 201.748 53.441 203.695 C 47.748 207.571 43.555 213.633 41.882 220.315 C 41.457 221.985 41.181 223.696 41.077 225.424 C 40.98 226.946 41.007 229.413 40.987 231.562 L 40.917 244.772 L 40.751 271.199 L 40.641 284.422 L 40.567 291.053 L 40.517 294.402 L 40.482 296.108 C 40.471 296.498 40.443 297.047 40.411 297.508 L 40.384 297.869 L 40.37 298.049 L 40.331 298.32 L 40.262 298.727 C 39.791 301.554 38.929 304.43 37.525 307.123 C 36.111 309.802 34.227 312.342 31.814 314.381 C 29.424 316.431 26.557 318.027 23.413 318.862 C 20.286 319.722 16.867 319.8 13.647 318.961 C 10.427 318.137 7.474 316.355 5.326 314.061 C 3.143 311.779 1.768 309.072 0.962 306.434 C 0.183 303.775 -0.082 301.154 0.021 298.652 C 0.096 296.147 0.554 293.755 1.218 291.477 C 1.57 290.269 2.835 289.575 4.042 289.927 C 4.886 290.173 5.479 290.864 5.641 291.67 L 5.656 291.754 C 6.074 293.868 6.55 295.898 7.185 297.762 C 7.815 299.627 8.611 301.323 9.557 302.718 C 10.501 304.11 11.599 305.171 12.713 305.822 C 13.838 306.468 14.941 306.769 16.05 306.774 C 18.248 306.811 20.518 305.747 22.222 303.898 C 23.057 302.962 23.808 301.882 24.338 300.615 C 24.887 299.361 25.299 297.968 25.485 296.444 L 25.541 296.035 C 25.534 296.077 25.577 295.798 25.528 296.102 L 25.522 296.076 L 25.512 296.024 C 25.502 295.935 25.5 295.934 25.505 295.775 L 25.522 294.18 L 25.539 290.926 L 25.546 284.351 L 25.525 271.162 L 25.431 244.763 L 25.37 231.561 C 25.378 229.309 25.294 227.369 25.422 224.494 C 25.56 221.827 25.956 219.167 26.586 216.565 C 29.088 206.134 35.468 196.72 44.276 190.569 C 48.664 187.479 53.638 185.182 58.879 183.865 C 60.188 183.531 61.515 183.276 62.848 183.058 L 64.858 182.792 L 67.063 182.618 C 67.265 182.602 67.405 182.598 67.535 182.595 L 67.948 182.582 L 68.773 182.556 L 69.401 182.543 L 69.907 182.552 L 70.918 182.574 C 71.593 182.577 72.266 182.636 72.94 182.684 C 73.614 182.724 74.286 182.797 74.956 182.887 C 80.323 183.552 85.582 185.22 90.333 187.796 C 95.089 190.364 99.353 193.796 102.885 197.863 C 106.418 201.928 109.226 206.631 111.114 211.696 C 112.054 214.23 112.765 216.851 113.237 219.512 C 113.369 220.176 113.459 220.844 113.546 221.515 L 113.677 222.52 L 113.772 223.618 C 113.83 224.344 113.895 225.156 113.898 225.626 L 113.923 226.452 L 113.937 226.865 L 113.943 227.486 L 114.172 253.868 L 114.303 267.068 L 114.32 268.706 L 114.313 269.493 L 114.332 269.99 C 114.371 270.701 114.464 271.478 114.6 272.235 C 114.872 273.757 115.32 275.235 115.916 276.574 C 117.119 279.265 118.874 281.379 121.238 282.975 C 123.595 284.578 126.637 285.661 130.074 286.218 C 130.933 286.357 131.813 286.466 132.712 286.543 C 133.161 286.584 133.628 286.613 134.02 286.637 L 134.417 286.656 L 134.623 286.665 L 134.727 286.67 C 134.857 286.675 133.984 286.651 134.386 286.659 L 134.964 286.64 C 136.502 286.584 138.027 286.372 139.501 285.956 C 142.448 285.142 145.229 283.646 147.543 281.577 C 149.877 279.532 151.704 276.923 152.907 274.087 C 153.493 272.661 153.92 271.174 154.177 269.657 C 154.256 269.28 154.287 268.895 154.338 268.513 C 154.37 268.308 154.381 268.146 154.388 268.003 L 154.427 267.549 L 154.439 267.436 L 154.444 267.231 L 154.454 266.818 L 154.472 265.993 L 154.466 264.564 L 154.355 122.554 L 154.353 119.759 L 154.353 118.362 L 154.386 116.784 C 154.41 114.657 154.576 112.532 154.793 110.413 C 155.249 106.179 156.098 101.979 157.344 97.902 C 159.816 89.741 163.775 82.049 168.95 75.3 C 174.122 68.55 180.501 62.722 187.744 58.236 C 194.975 53.739 203.053 50.569 211.439 48.974 C 213.547 48.563 215.624 48.288 217.799 48.062 L 221.175 47.819 L 223.969 47.753 L 224.552 47.745 L 224.951 47.755 L 225.75 47.775 L 227.347 47.82 C 228.411 47.834 229.472 47.963 230.535 48.034 C 231.599 48.098 232.654 48.258 233.712 48.393 C 234.771 48.514 235.822 48.697 236.87 48.897 C 245.259 50.435 253.358 53.537 260.598 57.998 C 267.833 62.468 274.224 68.242 279.406 74.947 C 284.592 81.648 288.569 89.287 291.066 97.393 C 292.302 101.449 293.168 105.617 293.655 109.823 C 293.714 110.357 293.794 110.855 293.834 111.418 L 293.957 113.096 L 294.07 114.774 L 294.104 116.187 L 294.134 117.583 L 294.145 118.494 L 294.142 119.193 L 294.131 121.988 L 293.9 190.522 C 293.967 191.207 294.058 191.888 294.184 192.564 C 294.438 193.915 294.826 195.239 295.34 196.518 C 295.853 197.797 296.497 199.026 297.246 200.191 C 297.625 200.771 298.031 201.333 298.457 201.881 C 298.892 202.422 299.35 202.943 299.828 203.448 L 300.569 204.18 L 301.344 204.876 L 302.153 205.532 L 302.991 206.147 L 303.859 206.72 L 304.752 207.25 C 305.359 207.582 305.977 207.892 306.609 208.171 C 307.243 208.443 307.889 208.688 308.544 208.903 C 309.202 209.111 309.868 209.289 310.542 209.438 C 311.211 209.578 311.913 209.689 312.573 209.77 L 313.44 209.855 L 314.861 209.903 L 315.449 209.942 C 316.853 210.101 318.375 210.215 319.912 210.305 C 321.454 210.395 323.024 210.462 324.603 210.512 L 329.368 210.624 L 331.766 210.653 L 332.973 210.663 L 333.589 210.667 L 334.434 210.679 C 334.434 210.679 336.532 210.824 337.941 211.677 C 339.468 212.486 340.906 214.314 341.345 215.912 C 341.862 217.337 341.64 219.061 341.641 219.056 L 341.636 219.056" style="fill:#db2028;fill-opacity:1;fill-rule:nonzero;stroke:none" id="path90" clip-path="url(#clipPath78)"/>
  <path d="M 473.108 221.233 C 472.671 220.591 473.683 223.687 473.615 215.948 C 469.37 208.779 468.29 211.494 468.853 210.857 C 468.509 210.73 467.955 210.607 468.003 210.619 L 467.637 210.551 L 467.48 210.53 C 467.47 210.527 467.5 210.53 467.551 210.534 L 467.92 210.559 L 468.823 210.607 L 470.745 210.683 C 472.044 210.725 473.355 210.754 474.663 210.772 C 477.278 210.805 479.894 210.794 482.422 210.703 L 484.288 210.614 L 485.193 210.555 L 485.745 210.522 L 485.998 210.514 L 486.507 210.497 C 487.303 210.486 487.587 210.421 488.007 210.393 C 488.457 210.328 488.98 210.278 489.455 210.178 C 490.432 210.02 491.384 209.739 492.325 209.443 C 493.263 209.132 494.172 208.736 495.064 208.305 C 498.607 206.529 501.649 203.704 503.711 200.312 C 505.784 196.919 506.855 192.998 506.836 189.041 C 506.816 184.638 510.368 181.051 514.772 181.031 C 518.927 181.011 522.354 184.174 522.745 188.23 L 522.755 188.344 L 522.812 188.948 L 506.885 189.645 L 506.574 132.862 L 506.354 76.08 C 506.342 71.507 506.207 66.269 507.003 60.722 C 507.714 55.38 509.086 50.125 511.025 45.094 C 514.873 35.011 521.105 25.886 529.012 18.551 C 536.951 11.259 546.566 5.716 557 2.737 C 562.205 1.238 567.589 0.308 573.001 0.081 L 575.03 0.026 L 576.044 0 L 577.168 0.021 C 578.371 0.056 579.431 0.047 580.978 0.18 L 583.133 0.344 L 585.159 0.594 C 586.507 0.742 587.841 0.986 589.175 1.232 C 594.508 2.225 599.715 3.884 604.65 6.119 C 609.581 8.357 614.281 11.118 618.555 14.433 C 622.837 17.734 626.744 21.51 630.192 25.673 C 633.612 29.857 636.563 34.425 638.974 39.268 C 643.815 48.949 646.279 59.824 646.289 70.612 L 646.279 99.003 L 646.226 212.569 L 628.556 212.424 L 628.56 212.18 L 628.561 212.137 C 628.652 207.259 632.681 203.378 637.56 203.469 C 642.387 203.559 646.239 207.513 646.229 212.323 L 646.163 240.108 L 646.122 267.672 C 646.127 267.8 646.126 267.999 646.136 268.068 L 646.16 268.308 L 646.195 268.787 C 646.241 269.163 646.286 269.586 646.346 269.981 C 646.485 270.78 646.634 271.579 646.867 272.355 C 647.301 273.918 647.924 275.43 648.732 276.845 C 650.321 279.689 652.621 282.158 655.338 283.946 C 658.049 285.751 661.17 286.852 664.382 287.169 C 664.786 287.193 665.186 287.251 665.593 287.247 L 666.202 287.267 C 666.17 287.268 666.38 287.269 666.149 287.27 L 666.258 287.269 L 666.475 287.266 L 666.91 287.26 C 667.177 287.255 667.536 287.257 667.73 287.245 L 668.352 287.215 C 668.747 287.208 669.252 287.148 669.697 287.122 C 671.519 286.955 673.243 286.628 674.83 286.163 C 677.998 285.194 680.475 283.677 682.28 281.496 C 684.117 279.348 685.372 276.358 686.049 272.834 C 686.385 271.075 686.57 269.194 686.63 267.252 L 686.653 266.644 L 686.653 265.776 L 686.655 264.039 L 686.657 260.566 L 686.668 246.674 L 686.728 218.889 L 686.733 217.153 L 686.742 216.494 L 686.756 216.061 L 686.781 215.193 L 686.798 214.734 L 686.839 214.154 L 686.927 212.993 C 686.979 212.187 687.091 211.546 687.178 210.823 C 687.574 208.008 688.238 205.23 689.161 202.543 C 691.002 197.165 693.878 192.162 697.566 187.869 C 701.252 183.573 705.752 179.98 710.785 177.351 C 715.811 174.718 721.374 173.068 727.03 172.547 C 727.738 172.495 728.446 172.433 729.154 172.4 L 730.216 172.375 L 730.748 172.364 L 731.013 172.359 L 731.146 172.356 L 731.48 172.359 L 733.215 172.411 C 733.93 172.452 734.745 172.518 735.503 172.582 C 738.368 172.874 741.136 173.437 743.858 174.267 C 749.286 175.926 754.361 178.651 758.734 182.203 C 763.111 185.753 766.797 190.127 769.551 195.035 C 772.308 199.939 774.122 205.383 774.85 210.963 C 775.039 212.357 775.146 213.76 775.2 215.161 C 775.244 216.674 775.236 217.67 775.232 218.866 L 775.221 225.812 L 775.198 239.706 L 775.153 267.491 C 775.118 276.753 775.167 286.014 775.063 295.277 L 775.047 297.014 L 775.043 297.448 L 775.042 297.556 C 775.047 297.805 775.034 297.339 775.037 297.427 L 775.04 297.644 L 775.045 298.078 C 775.047 298.218 775.048 298.401 775.054 298.423 L 775.068 298.789 L 775.115 299.296 C 775.162 299.625 775.214 299.949 775.282 300.263 C 775.577 301.505 776.038 302.615 776.787 303.591 C 777.533 304.555 778.503 305.461 779.718 306.08 C 780.908 306.746 782.294 307.136 783.672 307.253 C 786.448 307.422 789.023 306.591 790.865 304.004 C 791.786 302.714 792.464 300.987 792.878 299.04 C 793.282 297.089 793.427 294.935 793.427 292.697 L 793.427 292.622 C 793.428 291.42 794.403 290.446 795.605 290.446 C 796.477 290.447 797.231 290.963 797.576 291.705 C 798.632 293.972 799.453 296.433 799.812 299.116 C 800.164 301.789 800.072 304.727 799.1 307.674 C 798.158 310.611 796.233 313.504 793.578 315.551 C 790.946 317.641 787.727 318.863 784.495 319.29 C 781.251 319.711 777.953 319.347 774.846 318.286 C 771.754 317.203 768.81 315.417 766.449 312.944 C 764.079 310.494 762.276 307.423 761.327 304.206 C 761.085 303.403 760.888 302.597 760.724 301.787 L 760.52 300.577 C 760.459 300.143 760.412 299.668 760.366 299.214 L 760.292 298.258 L 760.279 298.042 L 760.267 297.587 L 760.261 297.153 L 760.234 295.416 C 760.078 286.156 760.073 276.894 759.986 267.633 L 759.782 239.85 L 759.681 225.959 L 759.63 219.013 C 759.628 216.483 759.591 214.896 759.325 213.054 C 758.343 205.854 754.453 199.104 748.753 194.597 C 745.917 192.339 742.664 190.637 739.225 189.622 C 737.515 189.114 735.719 188.772 733.975 188.61 L 732.8 188.521 L 731.064 188.485 C 730.979 188.482 731.396 188.491 731.18 188.489 L 731.096 188.492 L 730.928 188.498 L 730.591 188.51 L 729.918 188.529 L 728.577 188.635 C 721.452 189.336 714.687 192.979 710.056 198.514 C 707.736 201.267 705.947 204.455 704.821 207.849 C 704.256 209.547 703.855 211.296 703.623 213.068 C 703.58 213.495 703.493 213.997 703.485 214.348 L 703.442 214.919 L 703.416 215.204 C 703.407 215.299 703.409 215.48 703.405 215.613 L 703.377 217.125 L 703.387 218.862 L 703.539 246.646 L 703.594 260.539 L 703.608 264.012 L 703.615 265.748 L 703.619 266.616 L 703.608 267.241 L 703.593 267.745 C 703.522 270.429 703.279 273.174 702.762 275.967 C 702.245 278.758 701.447 281.602 700.252 284.405 C 699.064 287.202 697.458 289.959 695.394 292.423 C 693.358 294.905 690.873 297.05 688.197 298.747 C 685.518 300.448 682.657 301.681 679.811 302.561 C 676.959 303.419 674.11 303.945 671.322 304.215 C 670.613 304.268 669.967 304.343 669.203 304.372 L 668.09 304.424 L 667.176 304.445 L 666.147 304.459 L 665.019 304.434 C 664.267 304.428 663.517 304.35 662.766 304.297 C 656.758 303.745 650.881 301.686 645.864 298.386 C 640.831 295.104 636.618 290.622 633.654 285.403 C 632.159 282.8 630.985 280.008 630.162 277.114 C 629.732 275.671 629.427 274.194 629.174 272.712 C 629.056 271.964 628.968 271.236 628.88 270.462 L 628.784 269.211 L 628.741 268.584 C 628.727 268.365 628.73 268.274 628.724 268.113 L 628.7 267.245 L 628.688 266.156 L 628.684 264.42 L 628.676 260.947 L 628.659 254 L 628.626 240.108 L 628.559 212.323 L 646.229 212.467 L 646.225 212.713 C 646.157 217.592 642.147 221.492 637.267 221.425 C 632.433 221.357 628.559 217.42 628.554 212.601 L 628.554 212.569 L 628.502 99.003 L 628.492 70.612 C 628.467 62.478 626.622 54.416 623.034 47.14 C 621.237 43.508 619.036 40.071 616.48 36.917 C 613.897 33.784 610.969 30.937 607.767 28.447 C 604.572 25.944 601.055 23.878 597.381 22.192 C 593.704 20.509 589.833 19.259 585.863 18.511 C 584.87 18.326 583.878 18.134 582.873 18.026 L 581.378 17.832 L 579.994 17.723 C 579.186 17.62 577.877 17.61 576.715 17.574 L 576.272 17.562 L 576.05 17.556 L 575.94 17.553 C 575.851 17.551 576.299 17.558 576.065 17.556 L 575.306 17.577 L 573.787 17.612 C 569.739 17.762 565.73 18.453 561.842 19.555 C 554.051 21.744 546.82 25.882 540.802 31.36 C 537.818 34.127 535.122 37.211 532.801 40.56 C 530.47 43.903 528.582 47.542 527.082 51.325 C 525.59 55.111 524.52 59.066 523.958 63.104 C 523.835 64.106 523.663 65.158 523.618 66.06 L 523.495 67.463 C 523.462 67.978 523.457 68.624 523.436 69.199 L 523.393 70.756 L 523.387 72.53 L 523.374 76.08 L 523.155 132.862 L 522.843 189.645 L 522.842 189.733 C 522.818 194.138 519.227 197.689 514.822 197.665 C 510.663 197.643 507.263 194.407 506.916 190.342 L 506.866 189.738 L 522.786 189.041 C 522.754 190.763 522.661 192.488 522.399 194.197 C 522.146 195.904 521.798 197.602 521.298 199.255 C 520.339 202.573 518.886 205.741 517.049 208.646 C 513.374 214.461 508.079 219.214 501.868 222.203 C 500.311 222.936 498.713 223.589 497.067 224.107 C 495.419 224.609 493.746 225.046 492.042 225.306 C 491.185 225.46 490.355 225.542 489.461 225.64 C 488.528 225.713 487.461 225.783 486.901 225.777 L 486.392 225.786 L 486.138 225.791 C 486.787 225.76 486.308 225.782 486.448 225.776 L 486.431 225.777 L 486.395 225.779 L 486.323 225.783 L 486.181 225.792 L 485.056 225.848 L 482.857 225.918 C 479.961 225.977 477.152 225.942 474.344 225.864 C 472.94 225.823 471.54 225.771 470.129 225.703 L 467.988 225.585 L 466.861 225.506 L 466.216 225.451 L 465.78 225.406 L 465.371 225.351 L 465.203 225.323 L 464.88 225.26 C 464.907 225.27 464.333 225.14 463.968 225.007 C 464.521 224.369 463.431 227.08 459.177 219.904 C 459.094 212.16 460.119 215.247 459.689 214.599 C 461.521 210.893 466.01 209.374 469.716 211.206 C 473.422 213.038 474.94 217.527 473.108 221.233" style="fill:#4b5eaa;fill-opacity:1;fill-rule:nonzero;stroke:none" id="path94" clip-path="url(#clipPath78)"/>
  <path d="M 473.814 147.782 C 473.814 106.768 440.258 73.212 399.244 73.212 C 358.232 73.212 324.676 106.768 324.676 147.782 L 324.676 225.629 L 473.814 225.629 L 473.814 147.782 Z" style="fill-opacity: 1; fill-rule: nonzero; stroke: none;" id="path118" clip-path="url(#clipPath114)"/>
  <path d="M 375.403 189.365 C 375.403 195.107 370.749 199.76 365.007 199.76 C 359.266 199.76 354.612 195.107 354.612 189.365 C 354.612 183.624 359.266 178.97 365.007 178.97 C 370.749 178.97 375.403 183.624 375.403 189.365" style="fill:#ffffff;fill-opacity:1;fill-rule:nonzero;stroke:none" id="path122" clip-path="url(#clipPath114)"/>
  <path d="M 444.153 189.365 C 444.153 195.107 439.5 199.76 433.758 199.76 C 428.016 199.76 423.363 195.107 423.363 189.365 C 423.363 183.624 428.016 178.97 433.758 178.97 C 439.5 178.97 444.153 183.624 444.153 189.365" style="fill:#ffffff;fill-opacity:1;fill-rule:nonzero;stroke:none" id="path126" clip-path="url(#clipPath114)"/>
  <path d="M 307.882 210.564 C 307.882 219.771 300.418 227.236 291.21 227.236 C 282.001 227.236 274.536 219.771 274.536 210.564 C 274.536 201.356 282.001 193.891 291.21 193.891 C 300.418 193.891 307.882 201.356 307.882 210.564" style="fill-opacity: 1; fill-rule: nonzero; stroke: none;" id="path138" clip-path="url(#clipPath134)"/>
  <path d="M 264.024 182.393 C 264.024 190.66 257.322 197.362 249.055 197.362 C 240.788 197.362 234.086 190.66 234.086 182.393 C 234.086 174.125 240.788 167.423 249.055 167.423 C 257.322 167.423 264.024 174.125 264.024 182.393" style="fill-opacity: 1; fill-rule: nonzero; stroke: none;" id="path142" clip-path="url(#clipPath134)"/>
  <path d="M 222.202 207.433 C 222.202 214.874 216.17 220.906 208.73 220.906 C 201.289 220.906 195.257 214.874 195.257 207.433 C 195.257 199.993 201.289 193.961 208.73 193.961 C 216.17 193.961 222.202 199.993 222.202 207.433" style="fill-opacity: 1; fill-rule: nonzero; stroke: none;" id="path146" clip-path="url(#clipPath134)"/>
  <path d="M 188.408 178.03 C 188.408 184.644 183.047 190.005 176.433 190.005 C 169.819 190.005 164.457 184.644 164.457 178.03 C 164.457 171.416 169.819 166.054 176.433 166.054 C 183.047 166.054 188.408 171.416 188.408 178.03" style="fill-opacity: 1; fill-rule: nonzero; stroke: none;" id="path150" clip-path="url(#clipPath134)"/>
  <path d="M 166.847 141.145 C 166.847 146.932 162.156 151.623 156.369 151.623 C 150.581 151.623 145.89 146.932 145.89 141.145 C 145.89 135.357 150.581 130.666 156.369 130.666 C 162.156 130.666 166.847 135.357 166.847 141.145" style="fill-opacity: 1; fill-rule: nonzero; stroke: none;" id="path154" clip-path="url(#clipPath134)"/>
  <path d="M 131.283 126.081 C 131.283 131.042 127.262 135.063 122.302 135.063 C 117.341 135.063 113.32 131.042 113.32 126.081 C 113.32 121.12 117.341 117.099 122.302 117.099 C 127.262 117.099 131.283 121.12 131.283 126.081" style="fill-opacity: 1; fill-rule: nonzero; stroke: none;" id="path158" clip-path="url(#clipPath134)"/>
  <path d="M 104.407 148.569 C 104.407 152.703 101.056 156.054 96.922 156.054 C 92.788 156.054 89.437 152.703 89.437 148.569 C 89.437 144.435 92.788 141.085 96.922 141.085 C 101.056 141.085 104.407 144.435 104.407 148.569" style="fill-opacity: 1; fill-rule: nonzero; stroke: none;" id="path162" clip-path="url(#clipPath134)"/>
  <path d="M 91.91 173.819 C 91.91 177.126 89.229 179.807 85.922 179.807 C 82.616 179.807 79.934 177.126 79.934 173.819 C 79.934 170.513 82.616 167.832 85.922 167.832 C 89.229 167.832 91.91 170.513 91.91 173.819" style="fill-opacity: 1; fill-rule: nonzero; stroke: none;" id="path166" clip-path="url(#clipPath134)"/>
  <path d="M 68.847 186.229 C 68.847 188.709 66.836 190.72 64.356 190.72 C 61.876 190.72 59.865 188.709 59.865 186.229 C 59.865 183.749 61.876 181.739 64.356 181.739 C 66.836 181.739 68.847 183.749 68.847 186.229" style="fill-opacity: 1; fill-rule: nonzero; stroke: none;" id="path170" clip-path="url(#clipPath134)"/>
  <path d="M 490.28 210.745 C 490.28 219.953 497.745 227.417 506.952 227.417 C 516.161 227.417 523.626 219.953 523.626 210.745 C 523.626 201.537 516.161 194.072 506.952 194.072 C 497.745 194.072 490.28 201.537 490.28 210.745" style="fill-opacity: 1; fill-rule: nonzero; stroke: none;" id="path174" clip-path="url(#clipPath134)"/>
  <path d="M 514.442 163.346 C 514.442 171.613 521.144 178.316 529.411 178.316 C 537.678 178.316 544.38 171.613 544.38 163.346 C 544.38 155.079 537.678 148.377 529.411 148.377 C 521.144 148.377 514.442 155.079 514.442 163.346" style="fill-opacity: 1; fill-rule: nonzero; stroke: none;" id="path178" clip-path="url(#clipPath134)"/>
  <path d="M 553.892 134.525 C 553.892 141.965 559.924 147.997 567.365 147.997 C 574.805 147.997 580.837 141.965 580.837 134.525 C 580.837 127.084 574.805 121.052 567.365 121.052 C 559.924 121.052 553.892 127.084 553.892 134.525" style="fill-opacity: 1; fill-rule: nonzero; stroke: none;" id="path182" clip-path="url(#clipPath134)"/>
  <path d="M 594.946 155.713 C 594.946 162.327 600.308 167.688 606.922 167.688 C 613.536 167.688 618.897 162.327 618.897 155.713 C 618.897 149.099 613.536 143.737 606.922 143.737 C 600.308 143.737 594.946 149.099 594.946 155.713" style="fill-opacity: 1; fill-rule: nonzero; stroke: none;" id="path186" clip-path="url(#clipPath134)"/>
  <path d="M 614.872 190.34 C 614.872 196.127 619.563 200.818 625.35 200.818 C 631.138 200.818 635.829 196.127 635.829 190.34 C 635.829 184.553 631.138 179.861 625.35 179.861 C 619.563 179.861 614.872 184.553 614.872 190.34" style="fill-opacity: 1; fill-rule: nonzero; stroke: none;" id="path190" clip-path="url(#clipPath134)"/>
  <path d="M 640.419 215.585 C 640.419 220.546 644.44 224.567 649.4 224.567 C 654.361 224.567 658.382 220.546 658.382 215.585 C 658.382 210.625 654.361 206.604 649.4 206.604 C 644.44 206.604 640.419 210.625 640.419 215.585" style="fill-opacity: 1; fill-rule: nonzero; stroke: none;" id="path194" clip-path="url(#clipPath134)"/>
  <path d="M 670.813 208.756 C 670.813 212.89 674.164 216.24 678.298 216.24 C 682.432 216.24 685.782 212.89 685.782 208.756 C 685.782 204.622 682.432 201.271 678.298 201.271 C 674.164 201.271 670.813 204.622 670.813 208.756" style="fill-opacity: 1; fill-rule: nonzero; stroke: none;" id="path198" clip-path="url(#clipPath134)"/>
  <path d="M 689.092 187.747 C 689.092 191.053 691.773 193.734 695.08 193.734 C 698.386 193.734 701.067 191.053 701.067 187.747 C 701.067 184.44 698.386 181.759 695.08 181.759 C 691.773 181.759 689.092 184.44 689.092 187.747" style="fill-opacity: 1; fill-rule: nonzero; stroke: none;" id="path202" clip-path="url(#clipPath134)"/>
  <path d="M 712.901 188.821 C 712.901 191.301 714.912 193.312 717.392 193.312 C 719.872 193.312 721.882 191.301 721.882 188.821 C 721.882 186.341 719.872 184.331 717.392 184.331 C 714.912 184.331 712.901 186.341 712.901 188.821" style="fill-opacity: 1; fill-rule: nonzero; stroke: none;" id="path206" clip-path="url(#clipPath134)"/>
  <path style="fill:#000000;stroke-width:1.48706" d="m 181.33695,337.14789 c -3.64989,-3.6499 -3.64989,-3.6499 -3.64989,-49.88098 0,-46.2311 0,-46.2311 3.64989,-49.88098 3.64969,-3.6499 3.64969,-3.6499 217.46873,-3.60254 165.7353,0.035 214.34956,0.4541 216.1783,1.85884 5.438,4.17508 5.81896,7.55384 5.81896,51.60084 0,45.28924 -0.6419,50.28368 -6.75788,52.63092 -1.32396,0.50788 -98.4036,0.92404 -215.73268,0.92404 -213.32574,0 -213.32574,0 -216.97543,-3.64984 z m 147.29247,-11.87392 c 5.47958,-2.28966 11.12234,-9.965 11.13144,-15.14166 0.004,-2.71964 -1.07432,-3.26316 -7.80112,-3.92754 -8.48328,-0.83818 -11.09574,0.34268 -11.8064,5.33324 -0.40964,2.87992 -1.50228,3.28704 -9.88446,3.68388 -12.80356,0.6068 -13.62442,-0.31642 -13.62442,-15.31584 0,-14.98728 0.82866,-15.92244 13.56318,-15.31566 8.60174,0.4093 9.43204,0.74814 10.22772,4.16358 0.78316,3.35956 1.68482,3.76026 9.37298,4.16376 9.88294,0.5193 11.23634,-0.98894 8.45346,-9.42198 -3.04526,-9.22642 -8.07188,-11.08648 -29.97942,-11.09306 -18.00044,-0.006 -19.04524,0.1638 -23.32046,3.76058 -5.31248,4.47018 -7.07492,9.61356 -8.27024,24.13322 -0.9521,11.56388 0.8347,18.51634 5.82146,22.65766 4.938,4.1004 37.88762,5.75796 46.11628,2.31982 z m 271.35604,-5.95518 c 0,-1.18232 -4.12084,-13.22602 -9.15738,-26.76532 -9.1572,-24.61704 -9.1572,-24.61704 -32.81194,-24.61704 -23.6548,0 -23.6548,0 -23.18418,4.089 0.41202,3.58162 1.25192,4.19354 6.76254,4.92906 3.46062,0.46092 6.77276,1.3207 7.36066,1.90838 0.58684,0.58728 -2.8436,8.98114 -7.62532,18.65188 -4.78158,9.67056 -8.22192,18.34688 -7.64458,19.2807 0.57722,0.93368 4.3418,1.69774 8.36614,1.69774 6.9931,0 7.44604,-0.25406 10.24064,-5.73114 2.70376,-5.30014 3.51738,-5.80262 10.81084,-6.6786 12.28978,-1.47598 12.44488,-1.42212 15.37806,5.34664 4.14288,9.55986 4.78504,10.03702 13.50822,10.03702 5.9805,0 7.9963,-0.5411 7.9963,-2.14832 z m -36.05908,-22.7081 c -4.89726,-0.74244 -4.90254,-0.85782 -0.41808,-9.34378 3.53596,-6.69134 3.53596,-6.69134 5.70266,-1.48706 1.1916,2.86242 2.6266,6.71008 3.18848,8.55016 1.08384,3.5502 0.66108,3.6642 -8.4722,2.28068 z m -114.12462,15.37704 c 0,-4.61976 -3.95908,-5.39036 -27.69474,-5.39036 -17.4099,0 -18.40108,-0.161 -18.40108,-2.9739 0,-2.80148 0.9905,-2.9739 17.10008,-2.9739 17.10022,0 17.10022,0 17.10022,-4.27014 0,-4.26994 0,-4.26994 -19.33074,-5.33898 -17.65996,-0.97666 -19.33052,-1.31452 -19.33052,-3.90824 0,-2.66386 1.33256,-2.8392 21.56104,-2.8392 21.56106,0 21.56106,0 21.56106,-4.46096 0,-4.43884 -0.0358,-4.46098 -8.55008,-4.46588 -4.70256,-0.002 -19.08894,-0.4422 -31.96984,-0.97618 -23.41966,-0.97148 -23.41966,-0.97148 -23.41966,20.07894 0,21.0504 0,21.0504 35.68724,21.0504 35.68702,0 35.68702,0 35.68702,-3.53154 z m -82.11514,-25.07424 c 0.46936,-24.9469 -0.74728,-23.0443 15.20186,-23.79608 7.62948,-0.35928 8.17814,-0.63422 8.17814,-4.1029 0,-3.71742 0,-3.71742 -32.34136,-4.11808 -32.3416,-0.4006 -32.3416,-0.4006 -32.3416,3.9301 0,4.92592 2.05546,6.1358 10.42424,6.1358 9.51336,0 10.39334,2.00202 10.39334,23.65 0,10.437 0.47542,19.4508 1.05506,20.03062 0.5797,0.5797 5.09644,0.85782 10.03694,0.61966 8.98282,-0.43502 8.98282,-0.43502 9.39418,-22.34906 z m 105.57476,-0.018 c 0.41082,-21.93282 0.41082,-21.93282 12.26736,-21.93282 17.33542,0 17.80392,0.66514 17.80392,25.27848 0,19.33052 0,19.33052 9.62544,19.33052 9.62558,0 9.62558,0 10.03708,-21.93266 0.41082,-21.93282 0.41082,-21.93282 12.67906,-22.3646 12.2674,-0.43238 12.2674,-0.43238 12.2674,-5.54778 0,-4.07284 -0.68152,-5.28198 -3.34566,-5.93044 -1.84014,-0.44772 -28.10362,-0.62758 -58.3634,-0.4 -55.01776,0.41346 -55.01776,0.41346 -54.5344,4.8564 0.5941,5.46684 2.3422,6.6583 9.8082,6.68732 10.34088,0.0384 11.2695,2.0885 11.2695,24.85626 0,19.9114 0,19.9114 10.03706,19.47176 10.03694,-0.43988 10.03694,-0.43988 10.44844,-22.37244 z M 265.1788,303.05195 c 3.66784,-3.66806 3.9568,-4.8855 3.9568,-16.68412 0,-12.34776 -0.1366,-12.84996 -4.5963,-16.83398 -4.53462,-4.05174 -4.94588,-4.12058 -30.8412,-5.15842 -36.57088,-1.4658 -39.71496,0.3403 -39.60712,22.74176 0.0758,16.57704 3.06662,18.4695 31.03414,19.66396 31.51162,1.3456 35.3347,0.98908 40.05368,-3.7292 z m -36.15038,-4.9994 c -5.88834,-0.30032 -10.85736,-1.29814 -11.50114,-2.31104 -2.04234,-3.21282 -1.3496,-19.86472 0.90346,-21.73522 1.33364,-1.10684 6.81876,-1.57366 15.2414,-1.29726 13.158,0.4323 13.158,0.4323 13.59762,11.34986 0.45684,11.36164 -1.01062,15.34734 -5.4544,14.81266 -1.331,-0.161 -7.08556,-0.52884 -12.78778,-0.81902 z" id="path438"/>
</svg>